<svg xmlns="http://www.w3.org/2000/svg" viewBox="0 0 100 100" width="100" height="100">
  <!-- stem -->
  <line x1="50" y1="16" x2="50" y2="26" stroke="#4a7c3f" stroke-width="3" stroke-linecap="round"/>
  <!-- leaf -->
  <ellipse cx="56" cy="20" rx="8" ry="4.5" fill="#5cad50" transform="rotate(30 56 20)"/>
  <!-- top row -->
  <circle cx="38" cy="38" r="11" fill="#7b3fbe"/>
  <circle cx="62" cy="38" r="11" fill="#7b3fbe"/>
  <!-- mid row -->
  <circle cx="27" cy="55" r="11" fill="#7b3fbe"/>
  <circle cx="50" cy="55" r="11" fill="#7b3fbe"/>
  <circle cx="73" cy="55" r="11" fill="#7b3fbe"/>
  <!-- bottom row -->
  <circle cx="38" cy="72" r="11" fill="#7b3fbe"/>
  <circle cx="62" cy="72" r="11" fill="#7b3fbe"/>
  <!-- tip -->
  <circle cx="50" cy="87" r="11" fill="#7b3fbe"/>
  <!-- highlights -->
  <circle cx="34" cy="33" r="3.5" fill="#a87de0" opacity="0.55"/>
  <circle cx="58" cy="33" r="3.5" fill="#a87de0" opacity="0.55"/>
  <circle cx="23" cy="50" r="3.5" fill="#a87de0" opacity="0.55"/>
  <circle cx="46" cy="50" r="3.5" fill="#a87de0" opacity="0.55"/>
  <circle cx="69" cy="50" r="3.5" fill="#a87de0" opacity="0.55"/>
  <circle cx="34" cy="67" r="3.5" fill="#a87de0" opacity="0.55"/>
  <circle cx="58" cy="67" r="3.5" fill="#a87de0" opacity="0.55"/>
  <circle cx="46" cy="82" r="3.5" fill="#a87de0" opacity="0.55"/>
</svg>
