<svg xmlns="http://www.w3.org/2000/svg" viewBox="0 0 100 100" width="100" height="100">
  <g transform="rotate(180,50,50)">
    <path d="M10 42 Q50 8 90 42 L50 90 Z" fill="#4caf50"/>
    <path d="M14 43 Q50 13 86 43 L50 86 Z" fill="#c8f0b0"/>
    <path d="M19 45 Q50 19 81 45 L50 82 Z" fill="#e8404a"/>
    <ellipse cx="50" cy="57" rx="2.5" ry="4" fill="#1a1a2e"/>
    <ellipse cx="38" cy="63" rx="2.5" ry="4" fill="#1a1a2e" transform="rotate(-12 38 63)"/>
    <ellipse cx="62" cy="63" rx="2.5" ry="4" fill="#1a1a2e" transform="rotate(12 62 63)"/>
    <ellipse cx="43" cy="48" rx="2" ry="3.5" fill="#1a1a2e" transform="rotate(-8 43 48)"/>
    <ellipse cx="57" cy="48" rx="2" ry="3.5" fill="#1a1a2e" transform="rotate(8 57 48)"/>
  </g>
</svg>
