<svg id="icon-home" xmlns="http://www.w3.org/2000/svg" viewBox="0 0 64 64"><path id="home" d="M36.35,49.74v-.45c0-3.54,0-7.08,0-10.62,0-1.5-.93-2.44-2.43-2.44-1.41,0-2.81,0-4.22,0-1.38,0-2.35.97-2.35,2.34,0,3.56,0,7.13,0,10.69v.47h-.38c-2.07,0-4.15,0-6.22,0-1.45,0-2.39-.95-2.39-2.4,0-4.3,0-8.61,0-12.91v-.45c-.72,0-1.41,0-2.1,0-.98.01-1.75-.36-2.18-1.26-.44-.93-.27-1.8.4-2.58.24-.28.49-.54.74-.8,4.75-4.75,9.5-9.5,14.25-14.25.29-.29.58-.58.9-.84.92-.75,2.04-.74,2.97,0,.32.26.61.55.9.84,1.35,1.34,2.69,2.68,4.03,4.03.09.09.18.17.33.32,0-.43,0-.78,0-1.14,0-1.38.97-2.34,2.35-2.34.71,0,1.43,0,2.14,0,1.26.01,2.25.99,2.25,2.26,0,2.54,0,5.09,0,7.63,0,.26.08.43.26.61.99.98,1.98,1.96,2.96,2.96.32.33.64.66.9,1.03.51.74.54,1.54.13,2.33-.41.79-1.1,1.16-1.97,1.18-.74.01-1.47,0-2.26,0v.42c0,4.29,0,8.58,0,12.87,0,1.54-.93,2.46-2.48,2.46-2.16,0-4.31,0-6.52,0Z"/></svg>
