<?xml version="1.0" encoding="UTF-8"?><svg id="fin" xmlns="http://www.w3.org/2000/svg" viewBox="0 0 64 64"><defs><style>.cls-1{fill-rule:evenodd;}</style></defs><path id="menu" class="cls-1" d="M22.09,22.65h19.82c1.14,0,2.07.93,2.07,2.07v.03c0,1.14-.93,2.07-2.07,2.07h-19.82c-1.14,0-2.07-.93-2.07-2.07v-.03c0-1.14.93-2.07,2.07-2.07ZM22.09,30.15h19.82c1.14,0,2.07.93,2.07,2.07h0c0,1.14-.93,2.07-2.07,2.07h-19.82c-1.14,0-2.07-.93-2.07-2.07h0c0-1.14.93-2.07,2.07-2.07ZM22.09,37.21h19.82c1.14,0,2.07.93,2.07,2.07h0c0,1.14-.93,2.07-2.07,2.07h-19.82c-1.14,0-2.07-.93-2.07-2.07h0c0-1.14.93-2.07,2.07-2.07Z"/></svg>