<svg id="icon-rotate" xmlns="http://www.w3.org/2000/svg" viewBox="0 0 64 64"><path id="replay" d="M32.93,11.98c-7.13.05-13.38,3.82-16.89,9.48l-4.21-4.21c-.34-.34-.92-.1-.92.38v13.36c0,.3.24.54.54.54h13.36c.48,0,.72-.58.38-.92l-5.3-5.3c2.44-4.79,7.42-8.08,13.17-8.08,8.09,0,14.73,6.58,14.79,14.67.06,8.21-6.58,14.89-14.78,14.89-6.41,0-11.87-4.09-13.92-9.8-.08-.21-.28-.35-.5-.35h-4.37c-.36,0-.61.34-.52.68,2.33,8.48,10.09,14.71,19.31,14.71,11.06,0,20.02-8.97,20.02-20.02,0-11.08-9.07-20.1-20.16-20.02ZM28.13,24.51v15.53c0,.26.28.41.5.28l12.92-7.77c.21-.13.21-.44,0-.56l-12.92-7.77c-.22-.13-.5.03-.5.28Z"/></svg>
